<?xml version="1.0" encoding="UTF-8" standalone="no"?>
<!DOCTYPE svg PUBLIC "-//W3C//DTD SVG 1.1//EN"
 "http://www.w3.org/Graphics/SVG/1.1/DTD/svg11.dtd">
<!-- Generated by graphviz version 2.47.0 (20210316.0004)
 -->
<!-- Title: dependencies Pages: 1 -->
<svg width="504pt" height="211pt"
 viewBox="0.00 0.00 504.00 211.00" xmlns="http://www.w3.org/2000/svg" xmlns:xlink="http://www.w3.org/1999/xlink">
<g id="graph0" class="graph" transform="scale(1 1) rotate(0) translate(4 207)">
<title>dependencies</title>
<polygon fill="white" stroke="transparent" points="-4,4 -4,-207 500,-207 500,4 -4,4"/>
<text text-anchor="start" x="227.01" y="-42.4" font-family="sans-serif" font-weight="bold" font-size="14.00">Legend</text>
<polygon fill="#ffffb3" stroke="transparent" points="14,-10 14,-30 34,-30 34,-10 14,-10"/>
<text text-anchor="start" x="37.63" y="-15.4" font-family="sans-serif" font-size="14.00"> &#160;Declarations</text>
<polygon fill="#8dd3c7" stroke="transparent" points="127,-10 127,-30 147,-30 147,-10 127,-10"/>
<text text-anchor="start" x="150.73" y="-15.4" font-family="sans-serif" font-size="14.00"> &#160;Module</text>
<polygon fill="#80b1d3" stroke="transparent" points="213,-10 213,-30 233,-30 233,-10 213,-10"/>
<text text-anchor="start" x="236.78" y="-15.4" font-family="sans-serif" font-size="14.00"> &#160;Bootstrap</text>
<polygon fill="#fdb462" stroke="transparent" points="310,-10 310,-30 330,-30 330,-10 310,-10"/>
<text text-anchor="start" x="333.67" y="-15.4" font-family="sans-serif" font-size="14.00"> &#160;Providers</text>
<polygon fill="#fb8072" stroke="transparent" points="406,-10 406,-30 426,-30 426,-10 406,-10"/>
<text text-anchor="start" x="429.73" y="-15.4" font-family="sans-serif" font-size="14.00"> &#160;Exports</text>
<g id="clust1" class="cluster">
<title>cluster_UpdatePageModule</title>
<polygon fill="none" stroke="black" stroke-dasharray="1,5" points="92,-70 92,-195 404,-195 404,-70 92,-70"/>
</g>
<g id="clust2" class="cluster">
<title>cluster_UpdatePageModule_declarations</title>
<polygon fill="none" stroke="black" points="296,-78 296,-130 396,-130 396,-78 296,-78"/>
</g>
<g id="clust4" class="cluster">
<title>cluster_UpdatePageModule_imports</title>
<polygon fill="none" stroke="black" points="100,-78 100,-130 288,-130 288,-78 100,-78"/>
</g>
<!-- UpdatePage -->
<g id="node1" class="node">
<title>UpdatePage</title>
<polygon fill="#ffffb3" stroke="black" points="387.64,-122 304.36,-122 304.36,-86 387.64,-86 387.64,-122"/>
<text text-anchor="middle" x="346" y="-99.8" font-family="Times,serif" font-size="14.00">UpdatePage</text>
</g>
<!-- UpdatePageModule -->
<g id="node2" class="node">
<title>UpdatePageModule</title>
<polygon fill="#8dd3c7" stroke="black" points="326.69,-187 323.69,-191 302.69,-191 299.69,-187 199.31,-187 199.31,-151 326.69,-151 326.69,-187"/>
<text text-anchor="middle" x="263" y="-164.8" font-family="Times,serif" font-size="14.00">UpdatePageModule</text>
</g>
<!-- UpdatePage&#45;&gt;UpdatePageModule -->
<g id="edge1" class="edge">
<title>UpdatePage&#45;&gt;UpdatePageModule</title>
<path fill="none" stroke="black" d="M315.39,-122.11C315.39,-122.11 315.39,-140.99 315.39,-140.99"/>
<polygon fill="black" stroke="black" points="311.89,-140.99 315.39,-150.99 318.89,-140.99 311.89,-140.99"/>
</g>
<!-- UpdatePageRoutingModule -->
<g id="node3" class="node">
<title>UpdatePageRoutingModule</title>
<polygon fill="#8dd3c7" stroke="black" points="280.31,-122 277.31,-126 256.31,-126 253.31,-122 107.69,-122 107.69,-86 280.31,-86 280.31,-122"/>
<text text-anchor="middle" x="194" y="-99.8" font-family="Times,serif" font-size="14.00">UpdatePageRoutingModule</text>
</g>
<!-- UpdatePageRoutingModule&#45;&gt;UpdatePageModule -->
<g id="edge2" class="edge">
<title>UpdatePageRoutingModule&#45;&gt;UpdatePageModule</title>
<path fill="none" stroke="black" d="M239.78,-122.11C239.78,-122.11 239.78,-140.99 239.78,-140.99"/>
<polygon fill="black" stroke="black" points="236.28,-140.99 239.78,-150.99 243.28,-140.99 236.28,-140.99"/>
</g>
</g>
</svg>
